{"title":"The Descendants 2011 SCR XViD DTRG","uid":6960613,"size":1013922185,"categoryP":"video","categoryS":"movies","magnet":"?xt=urn:btih:32c9cc806cbe3ff4ef93e34da9db6d56087218fa&amp;dn=The+Descendants+2011+SCR+XViD+DTRG&amp;tr=udp%3A%2F%2Ftracker.openbittorrent.com%3A80&amp;tr=udp%3A%2F%2Fopen.demonii.com%3A1337&amp;tr=udp%3A%2F%2Ftracker.coppersurfer.tk%3A6969&amp;tr=udp%3A%2F%2Fexodus.desync.com%3A6969","seeders":0,"leechers":1,"uploader":"HeroMaster","files":-1,"time":1326746703,"description":"The Descendants 2011 SCR XViD DTRG\n &lt;a href=&quot;\nhttp://www.imdb.com/title/tt1033575/&quot; rel=&quot;nofollow&quot; target=&quot;_NEW&quot;&gt;\nhttp://www.imdb.com/title/tt1033575/&lt;/a&gt;\n\nVideo\nID : 0\nFormat : MPEG-4 Visual\nFormat profile : Advanced Simple@L5\nFormat settings, BVOP : 1\nFormat settings, QPel : No\nFormat settings, GMC : No warppoints\nFormat settings, Matrix : Default (H.263)\nMuxing mode : Packed bitstream\nCodec ID : XVID\nCodec ID/Hint : XviD\nDuration : 2h 0mn\nBit rate : 984 Kbps\nWidth : 720 pixels\nHeight : 304 pixels\nDisplay aspect ratio : 2.35:1\nFrame rate : 23.976 fps\nOriginal frame rate : 25.000 fps\nColor space : YUV\nChroma subsampling : 4:2:0\nBit depth : 8 bits\nScan type : Progressive\nCompression mode : Lossy\nBits/(Pixel*Frame) : 0.188\nStream size : 848 MiB (88%)\nWriting library : XviD 64\n\nAudio\nID : 1\nFormat : MPEG Audio\nFormat version : Version 1\nFormat profile : Layer 3\nMode : Joint stereo\nCodec ID : 55\nCodec ID/Hint : MP3\nDuration : 1h 55mn\nBit rate mode : Constant\nBit rate : 128 Kbps\nChannel(s) : 2 channels\nSampling rate : 48.0 KHz\nCompression mode : Lossy\nDelay relative to video : 500ms\nStream size : 106 MiB (11%)\nAlignment : Split accross interleaves\nInterleave, duration : 43 ms (1.04 video frame)\nInterleave, preload duration : 500 ms\n\nStoryline\n\nWith his wife Elizabeth on life support after a boating accident, Hawaiian land baron Matt King takes his daughters on a trip from Oahu to Kauai to confront the young real estate broker, who was having an affair with Elizabeth before her misfortune.\n\nSource Used\n\nZOMBIES (1ST Release) ..........ty ...................................so yeah \nyeah re-encode\n\nCorrected the AR and sorted out the obvious sync issue..............\n\nFiltered the vid not loads didnt have time but thats blah blah ...........left audio untouched\n\n\nFor those that got confused by ZOMBIES 1ST release\n\n\nDrop the file into vdub\n\nChange frame rate to 23.976fps\n\nAudio 500ms\n\nDirect stream copy\n\nSave\n\nEasy peasy !\n\nGreetz to EMBER,ETRG,BHRG,26k,CreWSaDe,RemixHD,LEGiTiMATE.......and maybe many more \n\n\nPoster:\n\n &lt;a href=&quot;\nhttp://i.imgur.com/xoxhc.jpg&quot; rel=&quot;nofollow&quot; target=&quot;_NEW&quot;&gt;\nhttp://i.imgur.com/xoxhc.jpg&lt;/a&gt;\n\n\nScreens:\n\n &lt;a href=&quot;\nhttp://i.imgur.com/73Qcv.png&quot; rel=&quot;nofollow&quot; target=&quot;_NEW&quot;&gt;\nhttp://i.imgur.com/73Qcv.png&lt;/a&gt;\n\n &lt;a href=&quot;\nhttp://i.imgur.com/X8VEq.png&quot; rel=&quot;nofollow&quot; target=&quot;_NEW&quot;&gt;\nhttp://i.imgur.com/X8VEq.png&lt;/a&gt;\n\n &lt;a href=&quot;\nhttp://i.imgur.com/Uc6RX.png&quot; rel=&quot;nofollow&quot; target=&quot;_NEW&quot;&gt;\nhttp://i.imgur.com/Uc6RX.png&lt;/a&gt;\n\n\nENJOY!","torrent":{"xt":"urn:btih:32c9cc806cbe3ff4ef93e34da9db6d56087218fa","amp;dn":"The+Descendants+2011+SCR+XViD+DTRG","amp;tr":["udp%3A%2F%2Ftracker.openbittorrent.com%3A80","udp%3A%2F%2Fopen.demonii.com%3A1337","udp%3A%2F%2Ftracker.coppersurfer.tk%3A6969","udp%3A%2F%2Fexodus.desync.com%3A6969"],"infoHash":"32c9cc806cbe3ff4ef93e34da9db6d56087218fa","infoHashBuffer":{"type":"Buffer","data":[50,201,204,128,108,190,63,244,239,147,227,77,169,219,109,86,8,114,24,250]},"announce":[],"urlList":[]}}